<?xml version="1.0" encoding="UTF-8"?>
<svg id="Capa_1" xmlns="http://www.w3.org/2000/svg" version="1.1" viewBox="0 0 32 32">
  <!-- Generator: Adobe Illustrator 29.0.0, SVG Export Plug-In . SVG Version: 2.1.0 Build 186)  -->
  <defs>
    <style>
      .st0 {
        fill: #f3f3f3;
      }
    </style>
  </defs>
  <path class="st0" d="M17.17.59l.68.12c8.06.96,13.9,8,13.55,15.96-.35,7.95-6.76,14.37-14.71,14.71-7.96.35-15-5.5-15.96-13.55l-.12-.68.05-2.3C1.18,7.28,7.29,1.2,14.86.64l2.3-.04h0ZM14.09,15.65c1.28-.85,1.77-2.13,1.39-3.43-.33-1.13-1.41-2.11-2.72-2.11h-5.63s0,11.54,0,11.54h5.79c1.48-.02,2.67-1.16,2.94-2.44.32-1.49-.39-2.84-1.78-3.56h0ZM23.5,12.17l-.02-1.4h-5.58s0,1.41,0,1.41h5.6s0,0,0,0ZM22.39,19.23c-.53.91-1.47,1.06-2.25.78-.75-.27-1.25-1.04-1.21-1.82h5.79c.31-1.78-.48-3.5-1.89-4.34-1.54-.91-3.48-.75-4.79.49-1.62,1.53-1.81,4-.58,5.81.92,1.37,2.48,1.94,4.08,1.69,1.5-.23,2.71-1.13,3.14-2.63l-2.29.02h0Z"/>
  <path class="st0" d="M12.17,19.75l-2.83.02v-3.05h2.77c.86,0,1.5.67,1.53,1.47.03.74-.54,1.55-1.47,1.56h0Z"/>
  <path class="st0" d="M12.15,14.81l-2.81.05v-2.91l2.61.02c.79,0,1.34.62,1.42,1.3.07.64-.37,1.52-1.22,1.54Z"/>
  <path class="st0" d="M22.56,16.65l-3.65.02c.16-.97.91-1.58,1.75-1.6.85-.02,1.66.44,1.9,1.58Z"/>
</svg>