<?xml version="1.0" encoding="UTF-8"?>
<svg id="Capa_1" data-name="Capa 1" xmlns="http://www.w3.org/2000/svg" viewBox="0 0 32 32">
  <defs>
    <style>
      .cls-1 {
        fill: #7c6dee;
      }
    </style>
  </defs>
  <path class="cls-1" d="M5.3,7.58L1.11,3.99c-.06-.07.01-.18.1-.14l5.08,1.4s.1,0,.12-.05L7.95.06c.03-.08.14-.08.17,0l1.47,5.25s.07.07.12.05l4.11-1.77c.08-.03.15.07.1.14l-3.19,4.34s-.02.1.02.12l5.05,3.57c.07.05.03.17-.06.16l-6.03-1.1s-.07-.05-.09,0l-1.5,5.54c-.02.08-.15.08-.17,0l-1.47-5.54s-.05-.06-.09-.06l-5.12.52c-.08,0-.12-.1-.06-.16l4.07-3.43s.04-.09.01-.13Z"/>
  <path class="cls-1" d="M8.72,18.67c0-.13-.15-.21-.26-.14l-3.27,1.78c-.15.09.9.38.9.56l-.04,9.48c0,1.7.95,1.66,1.47,1.66h7.68c.8,0,1.01-.26,1.01-1.95l.05-9.72c0-.79.46-1.15.68-1.28.07-.04.15-.03.21.02.69.53,4.89,3.78,6.76,5.49.73.67.6,2.83.55,3.82-.05,1.11-.07,2.23-.46,3.2-.08.2.07.42.29.42h6.19c.25,0,.4-.27.27-.48-1.08-1.72-2.38-6.45-2.43-6.63h0c-1.59-4.17-5.19-15.1-6.31-18.54-.21-.63-.01-1.33.5-1.77l.11-.1c.07-.06.18-.05.25.02.5.56,2.59,2.91,5.06,6.13.05.1.19.11.27.03.53-.54,2.17-1.95,2.66-2.38.07-.06.08-.16.02-.23-1.44-1.78-3.04-3.39-5.8-6.12-1.74-1.73-4.9-1.23-6.75,1.66-.87,1.36-.12,3.64,0,4.04,1.5,4.25,2.39,7.4,4.07,11.31.13.3-.21.58-.48.4-.93-.61-1.71-1.21-2.48-1.81-1.44-1.12-2.05-1.84-2.86-2.06-.36-.1-1.82-.5-2.98.37-.94.7-1.14,1.92-1.14,3.28-.12,4.59-.03,6.65-.05,7.9,0,.61-.11,1.1-.71,1.1h-1.78c-.62-.02-1.12-.21-1.13-.83l-.07-8.63h0Z"/>
</svg>